<svg xmlns="http://www.w3.org/2000/svg"><symbol viewBox="0 0 512 512" id="nav-cross-icon"><title>cross-icon</title><path d="M302 255.875l114 114c13 13 13 33 0 46-6 6-15 10-23 10s-17-4-23-10l-114-114-114 114c-6 6-15 10-23 10s-17-4-23-10c-13-13-13-33 0-46l114-114-114-114c-13-13-13-33 0-46s33-13 46 0l114 114 114-114c13-13 33-13 46 0s13 33 0 46l-114 114z"/></symbol><symbol viewBox="0 0 512 512" id="nav-edit-icon"><title>edit-icon</title><path d="M480 45L439 4c-3-3-5-4-9-4s-7 1-10 4L180 244c-1 1-2 3-3 5l-26 67c-4 9 3 19 12 19 2 0 3 0 5-1l68-27c2-1 3-2 4-3L480 64c5-5 5-14 0-19zM223 283l-36 14 14-36L430 33l22 22-229 228zM373 238c-12 0-22 10-22 22v207H69V79h216c12 0 22-9 22-21s-10-22-22-22H47c-12 0-21 10-21 22v430c0 12 9 22 21 22h326c12 0 21-10 21-22V260c0-12-9-22-21-22z"/></symbol><symbol viewBox="0 0 512 512" id="nav-plus-icon"><title>plus-icon</title><path d="M413.5 223.5c18 0 32 15 32 33s-14 33-32 33h-124v124c0 18-15 32-33 32s-33-14-33-32v-124h-124c-18 0-33-15-33-33s15-33 33-33h124v-124c0-18 15-33 33-33s33 15 33 33v124h124z"/></symbol><symbol viewBox="0 0 512 512" id="nav-trash-icon"><title>trash-icon</title><path d="M399 136c-12 0-22 10-22 22v275H132V158c0-12-9-22-21-22s-22 10-22 22v297c0 12 10 21 22 21h288c12 0 22-9 22-21V158c0-12-10-22-22-22zM453 66H323V23c0-8-5-13-13-13H200c-8 0-13 5-13 13v43H57c-12 0-22 10-22 22s10 21 22 21h396c12 0 22-9 22-21s-10-22-22-22zm-157 0h-82V37h82v29zM203 387V173c0-8-6-14-14-14s-13 6-13 14v214c0 8 5 14 13 14s14-6 14-14zM269 388V173c0-8-6-13-14-13s-14 5-14 13v215c0 8 6 13 14 13s14-5 14-13zM333 388V174c0-8-5-14-13-14s-14 6-14 14v214c0 8 6 14 14 14s13-6 13-14z"/></symbol><symbol viewBox="0 0 512 512" id="nav-user-icon"><title>user-icon</title><path d="M255 303c80 0 145-65 145-145S335 13 255 13 110 78 110 158s65 145 145 145zm0-247c56 0 101 46 101 102s-45 101-101 101-101-45-101-101S199 56 255 56zM322 316c-7-2-15-1-21 4l-46 39-46-39c-6-5-14-6-21-4C158 326 8 377 8 451c0 12 9 22 21 22h451c12 0 22-10 22-22 0-74-150-125-180-135zM63 429c24-25 80-52 127-68l51 43c8 7 20 7 28 0l51-43c47 16 103 43 127 68H63z"/></symbol></svg>