<svg baseProfile="tiny" xmlns="http://www.w3.org/2000/svg" preserveAspectRatio="xMinYMin meet" viewBox="0 0 3168 2640" width="3168" height="2640"><path d="M480 116h-82l-23-84c-3-9-11-16-21-16H156c-10 0-18 7-21 16l-23 84H29c-12 0-21 10-21 22v270c0 12 9 22 21 22h451c12 0 22-10 22-22V138c0-12-10-22-22-22zm-21 270H51V159h77c10 0 18-7 21-16l23-83h165l23 83c3 9 11 16 21 16h78v227zM255 122c-68 0-124 55-124 123s56 124 124 124 123-56 123-124-55-123-123-123zm0 203c-44 0-80-36-80-80s36-80 80-80 80 36 80 80-36 80-80 80zM277 185c-11-5-24 0-29 11s1 24 12 29c0 0 17 7 15 20s7 25 21 25c11 0 21-8 22-19 5-36-24-58-41-66zM258 267c-12 0-22 9-22 21s10 22 22 22 22-10 22-22-10-21-22-21z"/><g transform="translate(528)"><path d="M301 223l114 114c13 13 13 33 0 46-6 6-15 10-23 10s-17-4-23-10L255 269 141 383c-6 6-15 10-23 10s-17-4-23-10c-13-13-13-33 0-46l114-114L95 109c-13-13-13-33 0-46s33-13 46 0l114 114L369 63c13-13 33-13 46 0s13 33 0 46L301 223z"/></g><g transform="translate(0 528)"><path d="M480 45L439 4c-3-3-5-4-9-4s-7 1-10 4L180 244c-1 1-2 3-3 5l-26 67c-4 9 3 19 12 19 2 0 3 0 5-1l68-27c2-1 3-2 4-3L480 64c5-5 5-14 0-19zM223 283l-36 14 14-36L430 33l22 22-229 228zM373 238c-12 0-22 10-22 22v207H69V79h216c12 0 22-9 22-21s-10-22-22-22H47c-12 0-21 10-21 22v430c0 12 9 22 21 22h326c12 0 21-10 21-22V260c0-12-9-22-21-22z"/></g><g transform="translate(528 528)"><path d="M384 359c-11 0-19 8-19 19v19H41V165h51c11 0 19-8 19-19s-8-19-19-19H22c-11 0-19 8-19 19v270c0 11 8 19 19 19h362c11 0 19-8 19-19v-38c0-11-8-19-19-19zM506 156L366 16c-13-13-32-2-32 14v62c-73 3-131 27-172 68-63 63-63 146-63 149 0 10 8 19 19 19 7 0 13-3 16-9 36-64 131-74 184-74h16v64c0 16 20 26 32 14l140-140c4-4 5-9 5-14s-1-9-5-13zM372 263v-35c0-10-7-18-17-19-1 0-15-2-37-2-45 0-116 7-169 42 8-20 20-42 40-62 37-37 93-57 164-57 11 0 19-8 19-19V76l93 93-93 94z"/></g><g transform="translate(1056)"><path d="M509 200c-2-8-8-13-16-14l-42-6c-2-6-1-3-4-9l26-34c5-6 5-15 1-22 0-1-11-18-35-42s-41-35-42-35c-7-4-16-4-22 1l-34 26c-6-3-3-2-9-4l-6-42c-1-8-6-14-14-16-1 0-21-6-55-6s-54 6-55 6c-8 2-13 8-14 16l-6 42c-6 2-3 1-9 4l-34-26c-6-5-15-5-22-1-1 0-18 11-42 35s-35 41-35 42c-4 7-4 16 1 22l26 34c-3 6-2 4-4 10l-42 5c-8 1-14 6-16 14 0 1-6 21-6 55s6 54 6 55c2 8 8 13 16 14l42 6c2 6 1 3 4 9l-26 34c-5 6-5 15-1 22 0 1 11 18 35 42s41 35 42 35c7 4 16 4 22-1l34-26c6 3 4 2 10 4l5 42c1 8 6 14 14 16 1 0 21 6 55 6s54-6 55-6c8-2 13-8 14-16l6-42c6-2 3-1 9-4l34 26c6 5 15 5 22 1 1 0 18-11 42-35s35-41 35-42c4-7 4-16-1-22l-26-34c3-6 2-3 4-9l42-6c8-1 14-6 16-14 0-1 6-21 6-55s-6-54-6-55zm-35 88l-40 5c-7 1-14 6-16 13-6 17-4 12-11 27-3 7-2 15 2 21l25 31c-5 6-12 15-22 25s-18 17-24 22l-32-25c-6-4-14-5-21-2-17 8-9 5-27 11-7 2-12 9-13 16l-5 40c-8 1-19 2-33 2s-25-1-33-2l-5-40c-1-7-6-14-13-16-17-6-12-4-27-11-7-3-14-2-20 2l-32 25c-6-5-15-12-25-22s-16-18-21-24l24-32c4-6 5-14 2-21-8-15-5-10-11-27-2-7-9-12-16-13l-40-5c-1-8-2-19-2-33s1-25 2-33l40-5c7-1 14-6 16-13s5-13 5-14c0 0 3-7 6-13 3-7 2-14-2-20l-24-32c5-6 11-15 21-25s19-16 25-21l32 24c6 4 13 5 20 2 15-8 10-5 27-11 7-2 12-9 13-16l5-40c8-1 19-2 33-2s25 1 33 2l5 40c1 7 6 14 13 16 17 6 12 4 27 11 7 3 15 2 21-2l32-24c6 5 14 11 24 21s17 19 22 25l-25 32c-4 6-5 13-2 20 8 17 6 9 12 27 2 7 8 12 15 13l40 5c1 8 2 19 2 33s-1 25-2 33zM257 132c-68 0-123 55-123 123s55 123 123 123 123-55 123-123-55-123-123-123zm0 207c-47 0-84-37-84-84s37-84 84-84 84 37 84 84-37 84-84 84z"/></g><g transform="translate(1056 528)"><path d="M490 232c9 9 9 23 0 31-4 4-9 6-15 6s-11-2-15-6L255 58 50 263c-8 9-22 9-31 0-9-8-9-22 0-31L240 12c4-4 9-6 15-6s11 2 15 6l220 220zM407 247c12 0 21 10 21 22v209c0 12-9 22-21 22H307c-12 0-22-10-22-22V346h-61v132c0 12-9 22-21 22H103c-12 0-22-10-22-22V269c0-12 10-22 22-22s22 10 22 22v188h56V324c0-12 10-22 22-22h104c12 0 22 10 22 22v133h56V269c0-12 10-22 22-22z"/></g><g transform="translate(0 1056)"><path d="M255 15C124 15 17 122 17 253s107 237 238 237 237-106 237-237S386 15 255 15zm0 432c-107 0-194-87-194-194S148 59 255 59s194 87 194 194-87 194-194 194zM287 338l-20 9 26-133c3-14-12-29-28-20l-49 27c-9 5-12 17-7 26s17 12 26 7l12-6-25 127c-2 11 7 23 19 23 3 0 6-1 8-2l53-23c10-4 14-15 10-25s-15-14-25-10zM274 158c15 0 27-12 27-27s-12-27-27-27-27 12-27 27 12 27 27 27z"/></g><g transform="translate(528 1056)"><path d="M255 3c14 0 24 10 24 24v94c0 14-10 25-24 25s-25-11-25-25V27c0-14 11-24 25-24zM142 56l55 76c12 16 0 39-20 39-8 0-14-3-19-10l-55-76c-8-11-6-26 5-34s26-6 34 5zM33 207c-13-4-20-18-16-31s18-20 31-16l89 29c13 4 20 18 16 31-3 10-14 17-24 17-3 0-4-1-7-2l-89-28zM153 286c4 13-3 27-16 31l-89 29c-3 1-5 1-8 1-10 0-20-7-23-17-4-13 3-27 16-31l89-29c13-4 27 3 31 16zM192 340c11 8 13 23 5 34l-55 76c-5 7-12 10-20 10-20 0-31-23-19-39l55-76c8-11 23-13 34-5zM255 360c14 0 24 11 24 25v93c0 14-10 25-24 25s-25-11-25-25v-93c0-14 11-25 25-25zM352 345l55 76c12 16 0 39-20 39-8 0-14-3-19-10l-55-76c-8-11-6-26 5-34s26-6 34 5zM477 299c13 4 20 18 16 31-3 10-14 17-24 17-3 0-4 0-7-1l-89-29c-13-4-20-18-16-31s18-20 31-16l89 29zM357 220c-4-13 3-27 16-31l89-29c13-4 27 3 31 16s-3 27-16 31l-89 28c-3 1-5 2-8 2-10 0-20-7-23-17zM332 171c-20 0-31-23-19-39l55-76c8-11 23-13 34-5s13 23 5 34l-55 76c-5 7-12 10-20 10z"/></g><g transform="translate(1056 1056)"><path d="M255 8C178 8 88 54 88 182c0 124 146 269 152 275 4 4 9 7 15 7s11-3 15-7c6-6 152-151 152-275C422 54 332 8 255 8zm0 402c-36-39-123-143-123-228 0-121 94-130 123-130s123 9 123 130c0 85-87 189-123 228zM255 88c-47 0-86 39-86 86 0 48 39 86 86 86s86-38 86-86-39-86-86-86zm0 140c-29 0-54-25-54-54s25-53 54-53 53 24 53 53-24 54-53 54z"/></g><g transform="translate(1584)"><path d="M406 181h-12c0-34-5-95-42-136-24-27-57-40-97-40s-73 13-97 40c-37 41-42 102-42 136h-13c-12 0-21 9-21 21v275c0 12 9 22 21 22h303c12 0 22-10 22-22V202c0-12-10-21-22-21zM191 74c15-17 36-26 64-26s49 9 64 26c27 30 31 80 31 107H160c0-27 4-77 31-107zm194 382H125V224h260v232zM216 410h78c7 0 14-7 11-15l-22-55c4-6 10-18 10-29 0-20-14-41-38-41s-37 21-37 41c0 11 6 23 10 29l-22 55c-3 8 3 15 10 15zm32-79c-2-3-8-13-8-20 0 0 0-20 15-20s16 20 16 20c0 7-6 17-8 20s-3 7-2 11l18 46h-47l18-46c1-4 1-8-2-11z"/></g><g transform="translate(1584 528)"><path d="M488 75H22C10 75 0 84 0 96v253c0 12 10 22 22 22h466c12 0 22-10 22-22V97c1-12-10-22-22-22zm-66 43L255 241 88 118h334zm45 210H43V139l199 146c4 3 9 4 13 4s9-1 13-4l199-146v189z"/></g><g transform="translate(1584 1056)"><path d="M488 61L376 9c-2-1-5-1-8-1s-6 0-8 1L255 58 150 9c-2-1-5-1-8-1s-6 0-8 1L21 61c-7 3-11 11-11 18v340c0 10 8 19 19 19 3 0 5-1 8-2l105-48 105 48c2 1 5 2 8 2s6-1 8-2l105-48 104 48c3 1 5 2 8 2 11 0 19-9 19-19V79c0-7-4-15-11-18zM123 355l-75 34V91l75-35v299zm113 34l-75-34V56l75 35v298zm113-34l-75 34V91l75-35v299zm112 34l-74-34V56l74 35v298z"/></g><g transform="translate(0 1584)"><path d="M78 100c-20 0-35-15-35-35s15-36 35-36h353c20 0 36 16 36 36s-16 35-36 35H78zM431 187c20 0 36 16 36 36s-16 35-36 35H78c-20 0-35-15-35-35s15-36 35-36h353zM431 346c20 0 36 15 36 35s-16 36-36 36H78c-20 0-35-16-35-36s15-35 35-35h353z"/></g><g transform="translate(528 1584)"><path d="M464 295c15 0 27 12 27 27v147c0 15-12 27-27 27H46c-15 0-28-12-28-27V322c0-15 13-27 28-27s27 12 27 27v119h364V322c0-15 12-27 27-27zM236 356L126 246c-11-11-11-27 0-38s27-11 38 0l64 63V37c0-15 12-27 27-27s27 12 27 27v234l63-63c11-11 28-11 39 0s11 27 0 38L274 356c-5 5-12 8-19 8s-14-3-19-8z"/></g><g transform="translate(1056 1584)"><path d="M412 190c18 0 32 15 32 33s-14 33-32 33H288v124c0 18-15 32-33 32s-33-14-33-32V256H98c-18 0-33-15-33-33s15-33 33-33h124V66c0-18 15-33 33-33s33 15 33 33v124h124z"/></g><g transform="translate(1584 1584)"><path d="M488 91H377V25c0-7-7-14-14-14H147c-7 0-14 7-14 14v66H22c-12 0-22 10-22 22v254c0 12 10 21 22 21h84l-13 88c-2 10 7 19 16 19h292c9 0 16-8 16-17v-4l-14-86h85c12 0 22-9 22-21V113c0-12-10-22-22-22zM160 38h190v53H160V38zm-32 424l22-144h210l22 144H128zm339-117h-70l-7-46c-1-8-8-14-16-14H136c-8 0-15 6-16 14l-7 46H43V134h424v211zM118 206h52c9 0 16-7 16-16s-7-16-16-16h-52c-9 0-16 7-16 16s7 16 16 16z"/></g><g transform="translate(2112)"><path d="M255 5C124 5 17 112 17 243s107 237 238 237 237-106 237-237S386 5 255 5zm0 432c-107 0-194-87-194-194S148 49 255 49s194 87 194 194-87 194-194 194zM253 94c-80 0-98 59-98 82 0 12 10 21 22 21s22-9 22-21c0-9 5-39 54-39 24 0 42 7 53 19 14 15 13 35 12 43-3 23-15 35-38 35-40 0-49 22-49 40v18c0 12 10 22 22 22s22-10 22-22v-14c1 0 3-1 5-1 35 0 75-19 81-73 3-29-4-57-22-77-13-15-40-33-86-33zM253 336c-15 0-27 12-27 27s12 27 27 27 27-12 27-27-12-27-27-27z"/></g><g transform="translate(2112 528)"><path d="M315 4c-86 0-156 70-156 156 0 36 11 69 31 95L45 400c-10 10-10 25 0 35 5 5 11 7 17 7s13-2 18-7l146-146c25 18 56 28 89 28 86 0 157-71 157-157S401 4 315 4zm0 269c-62 0-113-51-113-113S253 47 315 47s113 51 113 113-51 113-113 113zM347 82c-11-5-23 0-28 11s0 24 11 29c1 1 27 13 24 35-2 13 8 25 22 25 11 0 20-8 21-19 6-44-29-72-50-81zM342 192c-12 0-22 10-22 22s10 21 22 21 22-9 22-21-10-22-22-22z"/></g><g transform="translate(2112 1056)"><path d="M482 171l-143-11-64-141c-4-8-11-12-20-12s-16 4-20 12l-64 141-143 11c-18 1-28 25-13 38l120 101-40 141c-2 9 1 19 8 24s16 6 24 1l128-83 127 83c4 2 8 3 12 3 15 0 25-15 21-28l-40-141 119-101c15-13 6-37-12-38zM336 286c-7 6-8 14-6 22l28 100-91-59c-4-2-8-4-12-4s-8 2-12 4l-91 59 28-100c2-8 0-16-7-22l-89-76 103-7c8-1 15-6 18-13l50-109 50 109c3 7 10 12 18 13l103 7-90 76z"/></g><g transform="translate(2112 1584)"><path d="M494 52c-13-13-33-13-46 0L176 324 62 211c-13-13-33-13-46 0s-13 33 0 46l137 136c6 6 15 10 23 10s17-4 23-10L494 99c13-13 13-34 0-47z"/></g><g transform="translate(0 2112)"><path d="M399 136c-12 0-22 10-22 22v275H132V158c0-12-9-22-21-22s-22 10-22 22v297c0 12 10 21 22 21h288c12 0 22-9 22-21V158c0-12-10-22-22-22zM453 66H323V23c0-8-5-13-13-13H200c-8 0-13 5-13 13v43H57c-12 0-22 10-22 22s10 21 22 21h396c12 0 22-9 22-21s-10-22-22-22zm-157 0h-82V37h82v29zM203 387V173c0-8-6-14-14-14s-13 6-13 14v214c0 8 5 14 13 14s14-6 14-14zM269 388V173c0-8-6-13-14-13s-14 5-14 13v215c0 8 6 13 14 13s14-5 14-13zM333 388V174c0-8-5-14-13-14s-14 6-14 14v214c0 8 6 14 14 14s13-6 13-14z"/></g><g transform="translate(528 2112)"><path d="M406 182H160c0-30 6-79 31-107 15-17 36-26 64-26 41 0 68 19 83 58 4 11 17 17 28 13s17-18 13-29C358 35 315 6 255 6c-40 0-73 13-97 40-37 41-42 102-42 136h-13c-12 0-21 9-21 21v275c0 12 9 22 21 22h303c12 0 22-10 22-22V203c0-12-10-21-22-21zm-21 275H125V225h260v232zM216 411h78c7 0 14-7 11-15l-22-55c4-6 10-18 10-29 0-20-14-41-38-41s-37 21-37 41c0 11 6 23 10 29l-22 55c-3 8 3 15 10 15zm32-79c-2-3-8-13-8-20 0 0 0-20 15-20s16 20 16 20c0 7-6 17-8 20s-3 7-2 11l18 46h-47l18-46c1-4 1-8-2-11z"/></g><g transform="translate(1056 2112)"><path d="M435 178L271 14c-8-8-22-10-31-1L74 178c-14 14-2 38 16 38h74v201c0 12 10 22 22 22h138c12 0 22-10 22-22V216h74c11 0 22-9 22-22 0-6-3-12-7-16zm-111-6c-12 0-22 10-22 22v201h-94V194c0-12-10-22-22-22h-44L255 60l112 112h-43z"/></g><g transform="translate(1584 2112)"><path d="M464 295c15 0 27 12 27 27v147c0 15-12 27-27 27H46c-15 0-28-12-28-27V322c0-15 13-27 28-27s27 12 27 27v119h364V322c0-15 12-27 27-27zM164 166c-11 11-27 11-38 0s-11-27 0-38L236 18c5-5 12-8 19-8s14 3 19 8l110 110c11 11 11 27 0 38-5 5-12 8-19 8s-15-3-20-8l-63-63v234c0 15-12 27-27 27s-27-12-27-27V103l-64 63z"/></g><g transform="translate(2112 2112)"><path d="M198 273c65 0 117-52 117-117S263 39 198 39 81 91 81 156s52 117 117 117zm0-194c42 0 76 35 76 77s-34 76-76 76-77-34-77-76 35-77 77-77zM251 277c-7-2-14 0-19 4l-34 29-35-29c-5-4-12-6-19-4C110 288 0 328 0 387c0 11 9 20 20 20h355c11 0 20-9 20-20 0-59-110-99-144-110zM55 367c19-16 55-36 91-48l39 33c8 6 18 6 26 0l39-33c36 12 72 32 91 48H55zM441 276c-8-4-16-1-20 7s-1 16 7 20c12 6 34 21 45 35h-54c-8 0-15 7-15 15s7 16 15 16h76c8 0 15-8 15-16 0-42-62-74-69-77zM366 250c-12 0-24-5-33-14-6-6-15-6-21 0s-6 16 0 22c15 15 33 22 54 22 42 0 77-35 77-77s-35-76-77-76c-16 0-46 5-38 25 3 8 12 12 20 9 6-2 12-4 18-4 26 0 47 20 47 46s-21 47-47 47z"/></g><g transform="translate(2640)"><path d="M255 303c80 0 145-65 145-145S335 13 255 13 110 78 110 158s65 145 145 145zm0-247c56 0 101 46 101 102s-45 101-101 101-101-45-101-101S199 56 255 56zM322 316c-7-2-15-1-21 4l-46 39-46-39c-6-5-14-6-21-4C158 326 8 377 8 451c0 12 9 22 21 22h451c12 0 22-10 22-22 0-74-150-125-180-135zM63 429c24-25 80-52 127-68l51 43c8 7 20 7 28 0l51-43c47 16 103 43 127 68H63z"/></g><g transform="translate(2640 528)"><path d="M493 401L274 21c-4-7-11-11-19-11s-15 4-19 11L15 403c-10 17 5 33 19 33h442c12 0 21-10 21-22 0-5-1-9-4-13zm-421-9L255 75l183 317H72zM233 173v97c0 12 10 22 22 22s22-10 22-22v-97c0-12-10-22-22-22s-22 10-22 22zM255 311c-15 0-27 12-27 27s12 28 27 28 27-13 27-28-12-27-27-27z"/></g></svg>