<?xml version="1.0" encoding="utf-8"?>
<!-- Generator: Adobe Illustrator 16.0.0, SVG Export Plug-In . SVG Version: 6.00 Build 0)  -->
<!DOCTYPE svg PUBLIC "-//W3C//DTD SVG 1.1//EN" "http://www.w3.org/Graphics/SVG/1.1/DTD/svg11.dtd">
<svg version="1.1" id="Layer_1" xmlns="http://www.w3.org/2000/svg" xmlns:xlink="http://www.w3.org/1999/xlink" x="0px" y="0px"
	 width="512px" height="512px" viewBox="0 0 512 512" enable-background="new 0 0 512 512" xml:space="preserve">
<path d="M302,255.875l114,114c13,13,13,33,0,46c-6,6-15,10-23,10s-17-4-23-10l-114-114l-114,114c-6,6-15,10-23,10s-17-4-23-10
	c-13-13-13-33,0-46l114-114l-114-114c-13-13-13-33,0-46s33-13,46,0l114,114l114-114c13-13,33-13,46,0s13,33,0,46L302,255.875z"/>
</svg>
